<svg width="256" height="280" viewBox="0 0 256 280" fill="none" xmlns="http://www.w3.org/2000/svg">
<path d="M229.751 240.6H245.103C244.571 236.268 241.607 234.14 237.655 234.14C233.703 234.14 230.663 236.116 229.751 240.6ZM251.183 251.924C253.159 254.204 252.399 257.472 249.815 258.992C246.243 261.348 241.759 262.184 237.579 262.184C227.395 262.184 219.035 254.812 219.035 243.64C219.035 232.468 227.395 225.324 237.579 225.324C247.687 225.324 255.743 232.772 255.743 243.944C255.743 245.844 254.147 247.212 252.475 247.212H229.599C230.131 251.316 234.615 253.064 238.339 253.064C240.467 253.064 242.291 252.912 244.495 251.392C246.927 249.72 249.663 250.176 251.183 251.924Z" fill="#F0F0F0"/>
<path d="M215.187 241.36V257.168C215.187 259.828 212.755 261.88 209.867 261.88C207.055 261.88 204.623 259.752 204.547 257.168V242.576C204.547 237.94 201.735 235.508 198.619 235.508C195.275 235.508 192.615 237.56 192.615 242.728V257.168C192.615 259.828 190.183 261.88 187.295 261.88C184.483 261.88 182.051 259.752 181.975 257.168V242.348C181.975 237.864 179.163 235.508 176.123 235.508C172.931 235.508 169.967 237.332 169.967 242.728V257.168C169.967 259.828 167.535 261.88 164.647 261.88C161.835 261.88 159.403 259.752 159.327 257.168V230.34C159.403 227.756 161.835 225.628 164.647 225.628C167.535 225.628 169.967 227.68 169.967 230.34V231.176C171.639 227.452 175.439 225.324 179.239 225.324C184.863 225.324 188.587 227.148 190.943 232.012C193.527 226.388 198.771 225.248 201.279 225.248C209.715 225.248 215.111 230.644 215.187 241.36Z" fill="#F0F0F0"/>
<path d="M142.793 231.024V230.34C142.869 227.756 145.301 225.628 148.113 225.628C151.001 225.628 153.433 227.68 153.433 230.34V257.168C153.433 259.828 151.001 261.88 148.113 261.88C145.301 261.88 142.869 259.752 142.793 257.168V256.484C140.513 260.208 136.181 262.184 132.153 262.184C123.109 262.184 114.901 255.496 114.901 243.716C114.901 231.936 123.109 225.324 132.153 225.324C134.433 225.324 139.753 226.312 142.793 231.024ZM125.845 243.792C125.845 248.504 128.885 252.76 134.205 252.76C138.993 252.76 142.869 248.504 142.869 243.792C142.869 239.08 138.993 234.824 134.205 234.824C128.885 234.824 125.845 239.08 125.845 243.792Z" fill="#F0F0F0"/>
<path d="M75.3458 272.14C73.9018 270.316 74.0538 267.276 75.9538 265.604C77.8538 263.856 81.0458 264.236 82.4898 265.832C84.4658 267.96 87.5058 269.708 90.3938 269.708C98.4498 269.708 100.654 264.16 100.198 257.092V256.104C97.9178 260.132 93.5858 262.184 89.1778 262.184C80.1338 262.184 71.9258 255.496 71.9258 243.716C71.9258 231.936 80.1338 225.324 89.1778 225.324C91.4578 225.324 96.7778 226.312 99.8178 231.024V230.34C99.8938 227.756 102.326 225.628 105.138 225.628C108.026 225.628 110.458 227.68 110.458 230.34V256.56C110.458 271.836 103.01 279.208 90.3938 279.208C84.2378 279.208 78.8418 276.472 75.3458 272.14ZM82.8698 243.792C82.8698 248.504 85.9098 252.76 91.2298 252.76C96.0178 252.76 99.8938 248.504 99.8938 243.792C99.8938 239.08 96.0178 234.824 91.2298 234.824C85.9098 234.824 82.8698 239.08 82.8698 243.792Z" fill="#F0F0F0"/>
<path d="M60.3491 259.296L53.9651 250.632L47.5811 259.296C45.9851 261.424 43.4011 262.716 40.0571 261.272C37.4731 260.132 35.8771 257.092 37.8531 254.736L47.6571 242.272L40.1331 232.772C38.2331 230.264 39.8291 227.376 42.3371 226.236C45.6811 224.792 48.5691 226.084 49.8611 228.212L53.9651 234.14L58.0691 228.212C59.3611 226.084 62.2491 224.792 65.5931 226.236C68.1011 227.376 69.6971 230.264 67.7971 232.772L60.2731 242.272L70.0771 254.736C72.0531 257.092 70.4571 260.132 67.8731 261.272C64.5291 262.716 61.9451 261.424 60.3491 259.296Z" fill="#D62828"/>
<path d="M10.716 240.6H26.068C25.536 236.268 22.572 234.14 18.62 234.14C14.668 234.14 11.628 236.116 10.716 240.6ZM32.148 251.924C34.124 254.204 33.364 257.472 30.78 258.992C27.208 261.348 22.724 262.184 18.544 262.184C8.36 262.184 0 254.812 0 243.64C0 232.468 8.36 225.324 18.544 225.324C28.652 225.324 36.708 232.772 36.708 243.944C36.708 245.844 35.112 247.212 33.44 247.212H10.564C11.096 251.316 15.58 253.064 19.304 253.064C21.432 253.064 23.256 252.912 25.46 251.392C27.892 249.72 30.628 250.176 32.148 251.924Z" fill="#F0F0F0"/>
<path fill-rule="evenodd" clip-rule="evenodd" d="M63.5258 65.7617C73.8747 55.4128 90.6536 55.4128 101.002 65.7617L128.264 93.0233L155.526 65.7617C165.875 55.4128 182.654 55.4128 193.002 65.7617C203.351 76.1106 203.351 92.8894 193.002 103.238L165.741 130.5L193.002 157.762C203.351 168.111 203.351 184.889 193.002 195.238C182.654 205.587 165.875 205.587 155.526 195.238L128.264 167.977L101.002 195.238C90.6536 205.587 73.8747 205.587 63.5258 195.238C53.1769 184.889 53.1769 168.111 63.5258 157.762L90.7875 130.5L63.5258 103.238C53.1769 92.8894 53.1769 76.1106 63.5258 65.7617Z" fill="#F0F0F0"/>
<path fill-rule="evenodd" clip-rule="evenodd" d="M235.002 23.7617C245.351 34.1106 245.351 50.8894 235.002 61.2383L147.71 148.531C136.97 159.271 119.558 159.271 108.819 148.531L63.5258 103.238C53.1769 92.8894 53.1769 76.1106 63.5258 65.7617C73.8747 55.4128 90.6536 55.4128 101.002 65.7617L128.264 93.0233L197.526 23.7617C207.875 13.4128 224.654 13.4128 235.002 23.7617Z" fill="#A7E819"/>
<path d="M154.264 26.5C154.264 41.1355 142.4 53 127.764 53C113.129 53 101.264 41.1355 101.264 26.5C101.264 11.8645 113.129 0 127.764 0C142.4 0 154.264 11.8645 154.264 26.5Z" fill="#D62828"/>
</svg>
