<svg width="257" height="280" viewBox="0 0 257 280" fill="none" xmlns="http://www.w3.org/2000/svg">
<path d="M230.486 240.6H245.839C245.307 236.268 242.342 234.14 238.391 234.14C234.439 234.14 231.398 236.116 230.486 240.6ZM251.919 251.924C253.895 254.204 253.135 257.472 250.551 258.992C246.979 261.348 242.495 262.184 238.314 262.184C228.13 262.184 219.771 254.812 219.771 243.64C219.771 232.468 228.13 225.324 238.314 225.324C248.423 225.324 256.479 232.772 256.479 243.944C256.479 245.844 254.882 247.212 253.21 247.212H230.335C230.867 251.316 235.351 253.064 239.075 253.064C241.203 253.064 243.027 252.912 245.23 251.392C247.663 249.72 250.398 250.176 251.919 251.924Z" fill="#002642"/>
<path d="M215.923 241.36V257.168C215.923 259.828 213.491 261.88 210.603 261.88C207.791 261.88 205.359 259.752 205.283 257.168V242.576C205.283 237.94 202.471 235.508 199.355 235.508C196.01 235.508 193.351 237.56 193.351 242.728V257.168C193.351 259.828 190.919 261.88 188.031 261.88C185.219 261.88 182.787 259.752 182.711 257.168V242.348C182.711 237.864 179.899 235.508 176.859 235.508C173.667 235.508 170.703 237.332 170.703 242.728V257.168C170.703 259.828 168.271 261.88 165.383 261.88C162.571 261.88 160.139 259.752 160.062 257.168V230.34C160.139 227.756 162.571 225.628 165.383 225.628C168.271 225.628 170.703 227.68 170.703 230.34V231.176C172.375 227.452 176.174 225.324 179.975 225.324C185.598 225.324 189.323 227.148 191.679 232.012C194.263 226.388 199.507 225.248 202.015 225.248C210.451 225.248 215.847 230.644 215.923 241.36Z" fill="#002642"/>
<path d="M143.529 231.024V230.34C143.605 227.756 146.037 225.628 148.849 225.628C151.737 225.628 154.169 227.68 154.169 230.34V257.168C154.169 259.828 151.737 261.88 148.849 261.88C146.037 261.88 143.605 259.752 143.529 257.168V256.484C141.249 260.208 136.917 262.184 132.889 262.184C123.845 262.184 115.637 255.496 115.637 243.716C115.637 231.936 123.845 225.324 132.889 225.324C135.169 225.324 140.489 226.312 143.529 231.024ZM126.581 243.792C126.581 248.504 129.621 252.76 134.941 252.76C139.729 252.76 143.605 248.504 143.605 243.792C143.605 239.08 139.729 234.824 134.941 234.824C129.621 234.824 126.581 239.08 126.581 243.792Z" fill="#002642"/>
<path d="M76.0816 272.14C74.6376 270.316 74.7896 267.276 76.6896 265.604C78.5896 263.856 81.7816 264.236 83.2256 265.832C85.2016 267.96 88.2416 269.708 91.1296 269.708C99.1856 269.708 101.39 264.16 100.934 257.092V256.104C98.6536 260.132 94.3216 262.184 89.9136 262.184C80.8696 262.184 72.6616 255.496 72.6616 243.716C72.6616 231.936 80.8696 225.324 89.9136 225.324C92.1936 225.324 97.5136 226.312 100.554 231.024V230.34C100.63 227.756 103.062 225.628 105.874 225.628C108.762 225.628 111.194 227.68 111.194 230.34V256.56C111.194 271.836 103.746 279.208 91.1296 279.208C84.9736 279.208 79.5776 276.472 76.0816 272.14ZM83.6056 243.792C83.6056 248.504 86.6456 252.76 91.9656 252.76C96.7536 252.76 100.63 248.504 100.63 243.792C100.63 239.08 96.7536 234.824 91.9656 234.824C86.6456 234.824 83.6056 239.08 83.6056 243.792Z" fill="#002642"/>
<path d="M61.085 259.296L54.701 250.632L48.317 259.296C46.721 261.424 44.137 262.716 40.793 261.272C38.209 260.132 36.613 257.092 38.589 254.736L48.393 242.272L40.869 232.772C38.969 230.264 40.565 227.376 43.073 226.236C46.417 224.792 49.305 226.084 50.597 228.212L54.701 234.14L58.805 228.212C60.097 226.084 62.985 224.792 66.329 226.236C68.837 227.376 70.433 230.264 68.533 232.772L61.009 242.272L70.813 254.736C72.789 257.092 71.193 260.132 68.609 261.272C65.265 262.716 62.681 261.424 61.085 259.296Z" fill="#D62828"/>
<path d="M11.4518 240.6H26.8038C26.2718 236.268 23.3078 234.14 19.3558 234.14C15.4038 234.14 12.3638 236.116 11.4518 240.6ZM32.8838 251.924C34.8598 254.204 34.0998 257.472 31.5158 258.992C27.9438 261.348 23.4598 262.184 19.2798 262.184C9.09584 262.184 0.73584 254.812 0.73584 243.64C0.73584 232.468 9.09584 225.324 19.2798 225.324C29.3878 225.324 37.4438 232.772 37.4438 243.944C37.4438 245.844 35.8478 247.212 34.1758 247.212H11.2998C11.8318 251.316 16.3158 253.064 20.0398 253.064C22.1678 253.064 23.9918 252.912 26.1958 251.392C28.6278 249.72 31.3638 250.176 32.8838 251.924Z" fill="#002642"/>
<path fill-rule="evenodd" clip-rule="evenodd" d="M64.2617 65.7617C74.6106 55.4128 91.3894 55.4128 101.738 65.7617L129 93.0233L156.262 65.7617C166.611 55.4128 183.389 55.4128 193.738 65.7617C204.087 76.1106 204.087 92.8894 193.738 103.238L166.477 130.5L193.738 157.762C204.087 168.111 204.087 184.889 193.738 195.238C183.389 205.587 166.611 205.587 156.262 195.238L129 167.977L101.738 195.238C91.3894 205.587 74.6106 205.587 64.2617 195.238C53.9128 184.889 53.9128 168.111 64.2617 157.762L91.5233 130.5L64.2617 103.238C53.9128 92.8894 53.9128 76.1106 64.2617 65.7617Z" fill="#002642"/>
<path fill-rule="evenodd" clip-rule="evenodd" d="M235.738 23.7617C246.087 34.1106 246.087 50.8894 235.738 61.2383L148.445 148.531C137.706 159.271 120.294 159.271 109.555 148.531L64.2617 103.238C53.9128 92.8894 53.9128 76.1106 64.2617 65.7617C74.6106 55.4128 91.3894 55.4128 101.738 65.7617L129 93.0233L198.262 23.7617C208.611 13.4128 225.389 13.4128 235.738 23.7617Z" fill="#A7E819"/>
<path d="M155 26.5C155 41.1355 143.136 53 128.5 53C113.864 53 102 41.1355 102 26.5C102 11.8645 113.864 0 128.5 0C143.136 0 155 11.8645 155 26.5Z" fill="#D62828"/>
</svg>
